<?xml-stylesheet type="text/css" href="../css/main-06.css"?>
<svg id="dota-svg" xmlns="http://www.w3.org/2000/svg" viewBox="0 0 300 300" onclick="window.open('http://blog.dota2.com/');">
<style type="text/css">
<![CDATA[
	.st0{fill:none;}
]]>
</style>
<path id="body" class="st1" fill="#F60B17" d="M2.8,13l6-4.9c0,0,3.6,1.6,6.6,2.4c3,0.8,9.3-0.3,10.7-2.4c1.4-2.2,2.5-2.4,3.8-2.4
	c1.4,0,2.7,2.4,4.1,2.4c1.4,0,16,0,17.5,0.1c1.5,0.1,15,1.1,15,1.1l2.6-1.5l5.8,1.5c0,0,4-4.8,5.1-3.7c1.1,1.1,2.9,3.6,5.8,5.4
	c2.9,1.8,20.8,0.7,20.8,0.7l2-6.3c0,0,7.7,0,11.3-1.1c3.6-1.1,10.6,0,10.6,0s2.2-2.4,3.3-2.4c1.1,0,4.4,1.3,5.8,1.8
	c1.5,0.5,9.5-0.7,9.5-0.7s2-2.2,3.8-2.5c1.8-0.4,4,0.5,5.1,1.8c1.1,1.3,1.5,2.4,1.5,2.4l11.7-0.4l2.2,2.4l2.2,2.5l4.2-0.2l1.8,3.1
	l1.8,0.8v3.9L192,16l1.3-10c0,0,17.5-1.1,22.6-1.1c5.1,0,17.7-0.2,23,1.1c5.3,1.3,8.9,2.7,8.9,2.7s0.5-4.1,2-5.4
	c1.5-1.3,5.7-2.4,6-0.7c0.4,1.6,1.6,5.3,1.6,5.3s4.4-1.3,5.8-1.3c1.5,0,4.4,1.6,6.6,2.1c2.2,0.6,7.1-1.4,8.9-1.4s9.3,1.4,9.3,1.4
	l1.6,1.7l2.9,1.5l0.7,1.4l3.3,1.1l1.8,2.5l1.3,13.8c0,0-2.9,3.6-2.9,5.8s2.9,4.5,2.9,6c0,1.5,0,63.3,0,63.3l-5.7,4.2l-1.8,6.7
	l-4,3.8l0.2,3.1h1.5l0.5,2.7h1.8l0.2,2l2.2,2.5l0.5,8c0,0,2.7,1.8,2.9,5.4c0.2,3.6-2.9,6.7-2.2,8.7c0.7,2-0.2,4.2-1.3,6.5
	c-1.1,2.4,0.5,8.3,0.5,8.3l2.9,1.1l1.6,0.7v3.3l0.7,115.8c0,0-0.7,2.9-2.2,3.6c-1.5,0.7-3.5,0.2-5.5-1.1s-13.5-6.3-16.6-7.1
	c-3.1-0.7-7.3-0.5-7.3,0.2s1.3,1.4,3.3,1.3s5.1,2.4,4.2,3.6c-0.9,1.3-4.9,2.3-8.2,3.4s-14.6,3.8-17.5,3.1c-2.9-0.7-7.1-3.3-7.1-3.3
	s-3.8-1.4-4.7-0.7c-0.9,0.7-3.8,1.4-5.3,0.7s-4.2,0-5.7-1.1c-1.5-1.1-2.6-2.9-2.6-2.9s-1.1,3.4-2.6,3.8c-1.5,0.4-9.1,0.9-9.1,0.9
	l-2.9,0.7l-1.3,1.1l-3.1,0.8h-3.5l-2.7,1.3l-3.5,2.5c0,0-6.6,1.1-8.8,0s-2.6-4.7-2.6-4.7l-13.5-0.2c0,0-1.8,2.7-5.5,4
	s-10.8,0.4-11.5,0c-0.7-0.4-2-2.7-2-2.7l-1.3,2.5h-2.3l-0.5-1.6l-1.5-0.7l-1.5,2.5l-5.8,0.5c0,0-1.1-4-1.1-4.7s-1.5-0.7-1.5-0.7
	l-0.9,3.8l-1.5,2.5c0,0-4.4,1.5-8-2.1s-6.9-7.8-6.9-7.8h-8.8l-3.1-2.2l-1.3-0.4l-1.5,2.5l-4.9,0.4l-2-4.7h-0.9l-1.1,3.3l-2.9,0.4
	l-0.9-4.5h-1.3l-1.5,4.4l-1.8-0.2l-0.2-1.6l-2.4,2l-2.6-0.2l0.4-2.7l-2.6,2.5l-4.6,0.2l-1.5-3.8l-0.9,1.8l-3.1-0.2v-1.6h-2.7
	l0.2,2.4c0,0-3.5,0.5-4,1.6c-0.5,1.1-3.6,2-4.2,0.7c-0.5-1.3-0.5-5.8-0.5-5.8s-0.9,2.4-2.2,3.4c-1.3,1.1-7.5,1.3-7.5,1.3l-3.1-2.5
	l-3.3,0.4l-4.6,1.3l-2.6-2.2H34l-1.8,2.2l-9.7-0.2c0,0-1.6-2.5-2.2-2.5s-2.2,2.9-2.2,2.9l-3.3,2.2l-2.2-1.1l-0.2-5.8L6.3,283
	c0,0-0.9-0.9-0.5-3.1C6.1,277.8,8,277,8,277l-0.4-48.8c0,0-2-5.4-2-7.6c0-2.2,1.6-2.7,3.6-2.2c2,0.5,2.4,4.7,2.4,4.7l1.5,0.5
	l0.5-24.5c0,0-7.5-4.2-7.8-5.6c-0.4-1.4,0-30.8,0-30.8s-2.4-2.7-3-6.2c-0.6-3.4-3.2-9.4-1.9-9.8c1.3-0.4,3.8,1.8,6.2,3.6
	c2.4,1.8,6.9,1.6,6.9,0c0-1.6-0.2-7.1-2-8.5c-1.8-1.5-3.5-6.9-4.2-9.2c-0.7-2.4,0.5-7.3,0.9-9.1c0.4-1.8,1.3-4.7,0.5-7.3
	c-0.7-2.5-1.6-4.7-2-6c-0.4-1.3,2-4,0.9-4.4c-1.1-0.4-2.9-1.8-3.6-3.6c-0.7-1.8-0.2-5.1-0.2-5.1L6,92.9L5,89l-2.2-2.4L3,82.9h3.3
	l-0.9-2.5l-2.9-1.1v-6.2l2.4-0.9l0.9-3.1l-2.4-0.9l-1.1-2L6,65.1l1.3-2.9l-3.5-1.5L3.4,47.7l0.4-7.7L7.6,41l0.5-3.8l-3.6-0.5
	l-0.9-2.7l3.6-2.7v-2.9l-3.1,1.1L2.8,13z M39.5,228.8c0.3,1,9.3,8,9.3,8l2.9,0.5h4v2.4l3.8,2.4l2.9,0.8l-0.6,2.2l2.4,2.2l2.2,2.2
	l1.9-3.5l4,0.6l1.7,4.6h6.8L119,238l-59.6-56.4C59.4,181.6,39.2,227.8,39.5,228.8z M107.7,133.3l4.9,2c0,0,3.1,0.3,4.3,2.8
	c1.2,2.5,1.6,6.4,1.6,6.4l21.3,22.2l5.9,0.7l1.5,5.3l2.9,2.6l5.9,0.7l6.9,8.6l1,5.1c0,0,2.6,4.8,5.1,6.7s4.6,1.2,6,1.2
	c1.5,0,1.5,7.8,1.5,7.8s31.2,32.2,36.3,37.7c5.1,5.6,5.4,4.7,8.1,5s15.6,0.9,20.3,1c4.7,0.1,9.4-0.9,11.5-2
	c2.1-1.2,12.9-34.1,14.4-40.5c1.5-6.4,1.2-11.1,1.2-11.1l-22.4-17c0,0-14.4-1.2-17.4-1.6c-2.9-0.4-1.3-4.7-0.9-5.8
	c0.4-1.2,3.8-1.6,3.8-1.6L108.2,88.7l-0.9-3.2H102l-4-2l-1.3-2.2H93v-1.8h-5l2.1-2l-2.4-2h-3.5v-3.9c0,0-17.5-12.1-23-15.9
	s-10.7-2.3-13.5-2.3c-2.8,0-12.8,4.5-12.8,4.5L107.7,133.3z M229.8,106.5h2.8l4.4,2.3l4.4,6.4V109l3.1,2.3l0.3-19.9l3.6-1.8l-1-12
	l1-3.1l-1.5-1.5l-0.5-2.8h2.1l-3.6-2.8l3.6-3c0,0-18.6-12.8-21.6-12.8c-3.2,0-40.1,10.5-40.1,10.5l-11.8,2.9L229.8,106.5z"/>
<path id="bottom-hole" d="M39.5,228.8c0.3,1,9.3,8,9.3,8l2.9,0.5h4v2.4l3.8,2.4l2.9,0.8l-0.6,2.2l2.4,2.2l2.2,2.2l1.9-3.5l4,0.6l1.7,4.6
	h6.8L119,238l-59.6-56.4C59.4,181.6,39.2,227.8,39.5,228.8z"/>
<path id="middle-hole" d="M107.7,133.3l4.9,2c0,0,3.1,0.3,4.3,2.8c1.2,2.5,1.6,6.4,1.6,6.4l21.3,22.2l5.9,0.7l1.5,5.3l2.9,2.6l5.9,0.7
	l6.9,8.6l1,5.1c0,0,2.6,4.8,5.1,6.7s4.6,1.2,6,1.2c1.5,0,1.5,7.8,1.5,7.8s31.2,32.2,36.3,37.7c5.1,5.6,5.4,4.7,8.1,5
	s15.6,0.9,20.3,1c4.7,0.1,9.4-0.9,11.5-2c2.1-1.2,12.9-34.1,14.4-40.5c1.5-6.4,1.2-11.1,1.2-11.1l-22.4-17c0,0-14.4-1.2-17.4-1.6
	c-2.9-0.4-1.3-4.7-0.9-5.8c0.4-1.2,3.8-1.6,3.8-1.6L108.2,88.7l-0.9-3.2H102l-4-2l-1.3-2.2H93v-1.8h-5l2.1-2l-2.4-2h-3.5v-3.9
	c0,0-17.5-12.1-23-15.9s-10.7-2.3-13.5-2.3c-2.8,0-12.8,4.5-12.8,4.5L107.7,133.3z"/>
<path id="top-hole" d="M229.8,106.5h2.8l4.4,2.3l4.4,6.4V109l3.1,2.3l0.3-19.9l3.6-1.8l-1-12l1-3.1l-1.5-1.5l-0.5-2.8h2.1l-3.6-2.8
	l3.6-3c0,0-18.6-12.8-21.6-12.8c-3.2,0-40.1,10.5-40.1,10.5l-11.8,2.9L229.8,106.5z"/>

<filter id="dotaHoleGlowBlurred" >
	<feGaussianBlur stdDeviation="2" />
</filter>
</svg>
