<?xml-stylesheet type="text/css" href="../css/main-06.css"?>
<svg id="keyarena-svg" xmlns="http://www.w3.org/2000/svg" viewBox="0 0 300 58.3" onclick="window.open('http://www.keyarena.com/plan-your-visit/directions-parking');">
<style type="text/css">
<![CDATA[
	.st0{fill-rule:evenodd;clip-rule:evenodd;fill:#DA0F1C;}
	.st1{fill-rule:evenodd;clip-rule:evenodd;fill:#DB0F1C;}
	.st2{fill-rule:evenodd;clip-rule:evenodd;fill:#E20E1B;}
	.st3{fill-rule:evenodd;clip-rule:evenodd;fill:#E50D1A;}
	.st4{fill-rule:evenodd;clip-rule:evenodd;fill:#E80D1A;}
	.st5{fill-rule:evenodd;clip-rule:evenodd;fill:#F40C18;}
	.st6{fill-rule:evenodd;clip-rule:evenodd;fill:#F50C18;}
	.st7{fill-rule:evenodd;clip-rule:evenodd;fill:#F60B17;}
	.st8{fill-rule:evenodd;clip-rule:evenodd;fill:#F80B17;}
	.st9{fill-rule:evenodd;clip-rule:evenodd;fill:#F90B17;}
]]>
</style>
<g id="Letters">
	<path id="letter-k" class="st8" d="M135.7,28.7c-0.8,0.9-0.6,1.8,0.1,2.7c4.2,5.6,7.7,11.8,12.6,17.3c-4.5,0-8.7,0-13.4,0
		c2.2-1.7,1.5-3.2,0.3-4.9c-2.1-2.8-4-5.8-6.5-8.6c0.2,4.5-2.2,9.3,1.8,13.5c-4.1,0-8.2,0-13.1,0c3.4-1.5,3.4-3.8,3.4-6.2
		c-0.1-5.7,0-11.4,0-17.1c0-2.1,0.1-4.3-2.6-5.5c4.1,0,8.1,0,12.4,0c-4.1,3.6-1.6,8.1-2.4,12.5c3.2-0.7,4.1-3.6,6.4-4.7
		C135.5,27.6,135.8,27.9,135.7,28.7z"/>
	<path id="letter-n" class="st6" d="M262.8,31.2c-1.8,5.9-1.8,11.7,0.1,17.9c-3.2,0.6-7.1,0.1-11.6,0.1c4.1-2.9,4.1-17.5,0.4-20.4
		c2.8-0.2,5.6-0.2,8.1-0.8c2.2-0.6,0.3,3.7,2.8,2.1C263.1,30.4,263.1,30.8,262.8,31.2z M267.3,34.7c0,3.1-0.1,6.2,0,9.3
		c0.1,1.9-0.1,3.7-2.9,5.1c4.9,0.3,8.5,0.5,12.1-0.3c-1.7-0.9-2.2-2-2.2-3.8c0.1-3.3,0.1-6.7,0-10c-0.1-2.4,0-5.2-2.8-6.2
		c-3.1-1.2-6.3-1.4-8.9,1.4c0,0.4,0.1,0.7,0.1,1.1C266.2,30,267.4,31.5,267.3,34.7z"/>
	<path id="letter-r" class="st5" d="M222.7,31.8c-0.9,0.2-1.8,0.2-1.8-1.1c-0.1-2.2-1.7-2.1-3.2-2.1c1.5-0.4,3.1-1.7,3.8,1.2
		c0.4,1.7,1.3,0,1.8-0.3c1.6-1.2,3.3-2.1,5.3-1.2c1.6,0.6,2.4,1.8,2.3,3.6c-0.1,1.8-1,2.9-2.7,3.3c-1.7,0.4-3-0.1-3.9-1.7
		C224,32.8,224.6,31,222.7,31.8z"/>
	<path id="letter-y_1_" class="st7" d="M173,56.6c2.9-4.2,3-8.4,0.6-12.9c-2.5-4.8-3.4-10.5-6.9-15.3c3.7-0.3,7.4-0.3,11,0
		c-3.2,4.6,1.3,7.7,1.8,11.5c1-3.7,5.1-6.8,2.2-11.4c1.6-0.5,3.4-0.4,5.4,0.1c-4.1,6.5-5.9,13.7-9,20.4c-1.3,2.9-1.7,6.3-4.5,8.3
		C173.3,57.1,173.1,56.9,173,56.6z M172,54.3c0.3-1.4-0.3-2.5-1.7-3c-1.1-0.4-2.3-0.3-3.2,0.6c-1,1-1.3,2.2-0.9,3.5
		c0.9,3,4.1,3.8,7.4,1.9c-0.2-0.2-0.4-0.4-0.6-0.6C170.9,56.6,171.8,55.4,172,54.3z"/>
	<path class="st4" d="M135.7,28.7c-0.3-0.3-0.6-0.6-1-0.9c0.8-0.9,1.6-1.9,2.5-2.7c1.8-1.6,2.1-3.2,0.1-4.9c2.5-0.6,5-0.6,7.5,0
		C141.1,22.2,139,26.1,135.7,28.7z"/>
	<path class="st3" d="M162,47.4c1.8-1.4,2.5-3.6,4-5.4c0.3,2.7-0.4,4.9-3,6.2C162.1,48.6,162,48.1,162,47.4z"/>
	<path class="st2" d="M248,46.4c0.7-1.4,1.4-2.9,2.1-4.3c1.4,2.3,0.4,3.9-1.2,5.3C248.1,47.5,247.8,47.2,248,46.4z"/>
	<path class="st0" d="M248,46.4c0.3,0.3,0.6,0.6,0.9,1c-1,1.4-2.4,2-4,2.2c-1-0.4-2-0.8-3-1.2C244.2,48.4,246.3,48,248,46.4z"/>
	<path class="st3" d="M162,47.4c0.3,0.3,0.6,0.5,1,0.8c-1.2,1-2.6,1.5-4.1,1.3c-0.5-0.4-1-0.9-1.5-1.3C159,48.2,160.5,48,162,47.4z"
		/>
	<path class="st1" d="M144.9,20.2c-2.5,0-5,0-7.5,0C139.9,19.2,142.4,19.3,144.9,20.2z"/>
	<path class="st8" d="M300,47.3c-2.9,2.9-6.2,3.4-9.7,1.2c-1.1-0.7-1.6-0.3-2.3,0.2c-2,1.3-4.2,1.2-6.4,0.8
		c-2.4-0.4-4.3-1.8-4.8-4.4c-0.5-2.7,0.5-4.8,2.8-6.3c2-1.2,4.2-1.8,6.6-1.8c1.4,0,3,0.2,2.9-2c-0.1-2,0.5-4.4-2-5.4
		c-1.6-0.6-3.3-0.5-2.6,2.1c0.6,2.1-0.1,3.6-2.3,4.1c-1.7,0.4-3.2-0.1-3.8-1.8c-0.9-2.1,0-3.9,2-4.8c4.2-1.9,8.5-2.1,12.7-0.2
		c2.2,1,2.9,3.2,2.9,5.5c0.1,3,0,5.9,0,8.9c0,1.2-0.2,2.5,0.6,3.5c2.3-0.4,0.5-3.9,3.2-3.7C300,44.7,300,46,300,47.3z M287.3,38.5
		c-3,0.2-3.5,2.6-3.5,5.1c0,1.9,0.3,4,2.8,3.7c3.2-0.3,2.3-3.1,2.7-5.4C288.4,41,290.4,38.2,287.3,38.5z"/>
	<path class="st8" d="M222.7,31.8c-1.7,4.5-0.9,9.2-1.2,13.8c-0.1,2,1.6,2.2,3,3c-3.8,0.9-20.7,1-25.7,0.1c4-1.2,3.1-3.3,2.3-5.8
		c-1.7-5.4-5.9-2.6-9-3.2c-3.2-0.5-3.1,2.4-3.8,4.3c-0.9,2.4,0.3,3.9,3.7,4.5c-3.8,1.2-6.7,0.7-10.7,0.6c4.1-2.4,5.2-5.5,6.5-8.6
		c2.5-6.1,5-12.1,7.4-18.3c0.7-1.8,1.7-2.3,3.5-2.3c1.9,0,2.3,1.1,2.9,2.5c2.8,7.5,5.7,14.9,8.5,22.4c0.5,1.4,0.9,3.3,3,2.8
		c1.9-0.5,1.2-2.4,1.2-3.7c0.1-3.5,0-7,0-10.5c0-1.9-0.1-3.6-2.6-4.3c2.1-0.9,4.1-0.6,6-0.6c1.8-0.6,3.6-1,3.7,1.9
		C221.4,31.3,222.4,31.3,222.7,31.8z M192.3,33.7c-2.1,4.8-2.1,4.7,3.2,4.8c3,0.1,4.1-0.5,2.6-3.5c-1-2.2-1.7-4.5-3-7.7
		C194,30,193.1,31.8,192.3,33.7z"/>
	<path class="st8" d="M158.9,49.5c-7.6,0.3-12.2-3.9-12-11.1c0.2-7.2,5.1-11.3,12.3-10.5c4.3,0.5,7.8,4.2,8.1,8.5
		c0.1,1.6-0.3,2.4-2.1,2.4c-2.2-0.1-4.4,0-6.6,0c-4.7,0-5.1,0.4-4.1,5c0.4,1.8,1.1,3.4,2.8,4.4C157.8,48.7,159.3,48,158.9,49.5z
		 M157.2,29.5c-3.3,0.1-2.4,3.3-2.9,5.3c-0.5,2.2,0.8,2.4,2.6,2.5c2.5,0.1,3.2-0.9,2.8-3.2C159.5,32.3,160.1,29.5,157.2,29.5z"/>
	<path class="st8" d="M244.9,49.5c-9.8,1-15.3-4.6-13.2-13.6c1.1-5,4.8-7.9,10-8c5.1-0.1,8.6,2.7,9.9,7.5c0.6,2.4,0.3,3.7-2.6,3.5
		c-1.9-0.2-3.9,0-5.8,0c-4.7,0-5.3,0.8-4.1,5.4c0.4,1.7,1.1,3.2,2.8,3.9C242.8,49,244.6,47.5,244.9,49.5z M241.6,29.7
		c-3.4,0.2-2.5,3.6-2.8,5.8c-0.4,2.5,1.5,2.1,3,2.2c2.4,0.2,3-0.9,2.7-2.2C244.1,32.6,244.6,29.5,241.6,29.7z"/>
</g>
<path id="key" class="st9" d="M27.1,0c5.3,2.1,9.5,5.3,10.1,11.5c0.1,1.5,1.1,1.5,2.2,1.6c3.1,0.4,5.8,1.7,7.6,4.2
	c1.5,2,3.2,2.2,5.3,2.2c16,0,32,0,48,0c4.1,0,7,2.3,7,5.5c0,3.2-2.5,5.1-6.7,5.2c-1.3,0-2.6-0.4-3.7,0.6c-0.8,0.7-1.4,1.6-1.1,2.7
	c0.3,1.2,1.1,2.3,2.4,2.1c3.6-0.4,3.6,1.7,3.4,4.3c-0.1,1-0.1,2.1-0.1,3.1c0,6.6,0,6.4-6.5,6.7c-3.5,0.2-4.8-1-4.6-4.4
	c0.1-2.2,0-4.4-0.2-6.6c-0.1-1.7-0.7-3.2-2.7-3.2c-2,0-3,1.2-3,3.2c0,2.8-0.1,5.7,0,8.5c0.1,1.8-0.6,2.4-2.4,2.5
	c-8.6,0.6-8.6,0.6-8.5-7.6c0-2.9-1.3-6.7,3.9-6.9c0.9,0,1.5-1.4,1.3-2.5c-0.3-1.4-1-2.5-2.5-2.5c-8.5,0-17,0-25.6,0
	c-1.3,0-1.7,0.9-2.2,1.8c-2,3.5-5,5.5-9,5.8c-1.6,0.1-2,0.8-2.4,2.2c-1.6,6-6.4,9.8-12.3,9.9c-5.4,0.1-9.4-2.9-11.5-9.1
	c-0.6-1.9-1.5-3-3.5-3.5C4.9,36.3,1.9,33,0,28.7c0-2.1,0-4.1,0-6.2c0.4-5.4,3.6-8.6,8.4-10.3c1.8-0.6,2.7-1.8,3.3-3.5
	c1.6-4.5,4-8.1,9.2-8.7C23,0,25.1,0,27.1,0z M27,12.2c-1.9-1-3.8-0.8-5.5,0.5c-1.9,1.5-2.7,3.5-1.7,5.8c0.9,2.1,0.6,3.3-1.9,2.3
	c-2.6-1-4.6-0.3-6.2,1.7c-1.4,1.7-1.4,3.6-0.3,5.4c1.4,2.4,3.6,2.8,6.1,2.2c2.4-0.5,2.8,0.3,2.1,2.4c-0.7,2.2,0.1,4.1,2,5.4
	c1.7,1.2,3.6,1.3,5.5,0.2c2-1.2,2.9-3,2.4-5.2c-0.5-2.6-0.1-3.7,2.9-2.8c2.3,0.7,4.4-0.1,5.7-2.2c1-1.7,1-3.5-0.1-5.1
	c-1.3-2-3.3-2.9-5.7-2.2c-2.9,0.9-3.5-0.3-2.8-3.2C30,15.3,29.2,13.4,27,12.2z"/>
</svg>
