<?xml-stylesheet type="text/css" href="../css/main-06.css"?>
<svg id="pint-svg" xmlns="http://www.w3.org/2000/svg" xmlns:xlink="http://www.w3.org/1999/xlink" viewBox="0 0 300 300">
<style type="text/css">
<![CDATA[
	#bolts{fill:#636363;stroke:#000000;stroke-width:0.25;stroke-miterlimit:10;}
	#top-ring-outer{fill:#5E4817;stroke:#000000;stroke-width:0.5;stroke-miterlimit:10;}
	#ale-highlights{fill:#B7B3A1;}
	#handle{fill:#483A1B;stroke:#000000;stroke-width:0.5;stroke-miterlimit:10;}
	#wood{fill:#614D29;stroke:#000000;stroke-width:0.5;stroke-miterlimit:10;}
	#mug-inner{clip-path:url(#SVGID_2_);fill:#534220;}
	#ale-midtones{fill:#918B80;}
	#ale-shadows{fill:#60584F;}
	#metal-rings{fill:#515151;stroke:#000000;stroke-width:0.5;stroke-miterlimit:10;}
]]>
</style>
<path id="handle" d="M224.1,89.3c0,0,32.9,16.2,37.3,21.2c4.4,5,12.2,43.7,9.1,56.7c-3.1,13-21.8,56.4-28.6,65.5
		c-6.8,9-23.9,12.7-35.6,12.7c-11.7,0-18.1,0-18.1,0l5.5-23l4-16.9c0,0,17,8.1,20.4,3.1c3.4-5,12.7-18.8,16.4-32.9
		c3.7-14,9.4-34.2,5.5-37.9c-3.9-3.7-24.2-8.4-24.2-8.4L224.1,89.3z"/>
<g id="wood">
	<path class="st4" d="M91.9,40L14.8,255.7L0.3,234L79.4,22.2c0,0-1.5,4,1.1,7C83.7,33,91.9,40,91.9,40"/>
	<polyline class="st4" points="129.3,58.9 56.2,282.9 14.8,255.7 91.9,40 108.9,50 129.3,58.9 	"/>
	<path class="st4" d="M129.3,58.9c0,0,11.6,4.4,18.6,6.5c7,2.1,22.9,6.2,22.9,6.2L107.7,300l-51.6-17.1L129.3,58.9"/>
	<path class="st4" d="M170.8,71.5c0,0,17,3.6,25.2,4.2c8.2,0.6,11.3,0.6,11.3,0.6l-56.2,221.8l-43.4,1.9L170.8,71.5"/>
	<path class="st4" d="M207.3,76.3c0,0,11.5-0.1,15-1.9c3.5-1.8,6-5.1,6-5.1s-0.4,9.5-2.1,17.5c-1.7,8-46.5,195.4-46.5,195.4
		l-28.6,15.9L207.3,76.3"/>
</g>
<g id="metal-rings">
	<path class="st8" d="M24.2,170.4c0,0,7,13.5,16.9,19.6c9.9,6.1,26,15.6,40,21.5c14,5.8,32.7,14,50.6,15.4c17.9,1.3,37.1,1.3,45.4,0
		c8.3-1.3,17.6-8,17.6-8l-6.8,28.6c0,0-16.8,7.5-25.3,8.8c-8.6,1.3-29.6,1.6-41.8,0c-12.2-1.6-36.1-7.2-50.1-13.5
		c-14-6.4-35.6-16.2-41.8-24.6c-6.2-8.5-14.5-20.7-14.5-20.7L24.2,170.4z"/>
	<path class="st8" d="M70.8,45.3c0,0,4.8,9.6,10.5,13.6S106.7,75,119.9,80c13.2,5,27.5,12.2,43.4,14.3c15.8,2.1,26.5,2.9,37.4,2.4
		c10.9-0.5,24.7-6,24.7-6l-6.9,28.4c0,0-11.7,6.3-23.8,6.5c-12.1,0.3-21.2,1.6-37.6-2.7c-16.4-4.2-27.3-7.2-40.2-11.7
		c-13-4.5-34-15.1-43.1-22.3C64.7,81.9,60,74.4,60,74.4L70.8,45.3z"/>
	<g id="bolts">
		<path class="st0" d="M143.5,242.7c0-3.9,4.5-5.1,8.7-5.1c4.2,0,6.7,2.1,6.7,6.4c0,4.2-4.7,5.7-7.7,5.7
			C148.2,249.6,143.5,248.3,143.5,242.7z"/>
		<path class="st0" d="M55.1,208.8c3.9,0,5.5,5.5,5.5,8.1c0,2.6-1.7,10-9.8,10c-8,0-8.6-10.5-7-12.1
			C45.4,213.2,45.7,208.8,55.1,208.8z"/>
		<path class="st0" d="M71.1,61.6c2.1,0,7.4,5.3,2.1,10.8c-5.4,5.5-7.6-1-7.6-3C65.6,67.4,65.1,61.6,71.1,61.6z"/>
		<path class="st0" d="M128.6,99.7c3.7-3.8,6.1-5.8,10.2-5.8c4.2,0,8.9,9.1,4.4,13.6c-4.5,4.6-10.5,4.6-12.7,4.6
			C128.3,112.1,124.6,103.9,128.6,99.7z"/>
		<path class="st0" d="M205.1,113c2.5-4.5,4.5-7.6,7.1-7.6c2.6,0,2.9,3.2,1.7,7.6c-1.2,4.4-5.4,8.5-7.7,8.3
			C203.9,121.1,202.2,118.2,205.1,113z"/>
	</g>
</g>
<path id="top-ring-outer" d="M216.1,65.8c-2.6,8.8-32.8,7.3-67.3-3.5c-34.5-10.8-60.3-26.6-57.7-35.5c2.6-8.8,32.8-7.3,67.3,3.5
	C192.9,41.1,218.8,57,216.1,65.8z M159.3,27.3c-41.1-12.8-77-14.7-80.1-4.2c-3.1,10.5,27.6,29.4,68.7,42.2
	c41.1,12.8,77,14.7,80.1,4.2C231.2,59,200.4,40.1,159.3,27.3z"/>
<g id="mug-inner">
	<defs>
		<path id="SVGID_1_" d="M159.3,27.3c-41.1-12.8-77-14.7-80.1-4.2c-3.1,10.5,27.6,29.4,68.7,42.2c41.1,12.8,77,14.7,80.1,4.2
			C231.2,59,200.4,40.1,159.3,27.3z"/>
	</defs>
	<clipPath id="SVGID_2_">
		<use xlink:href="#SVGID_1_"  style="overflow:visible;"/>
	</clipPath>
	<path class="st5" d="M216.1,65.8c-2.6,8.8-32.8,7.3-67.3-3.5c-34.5-10.8-60.3-26.6-57.7-35.5c2.6-8.8,32.8-7.3,67.3,3.5
		C192.9,41.1,218.8,57,216.1,65.8z"/>
</g>
<g id="ale">
	<g id="ale-highlights">
		<path class="st2" d="M95.8,34.8c0,0,3.1-8.6,9.6-8.1c6.5,0.5,17.3,4.6,21.1,6.6c3.8,2,4.7,0.9,4.7,0.9s-2.2-0.8-1.6-2.4
			c0.6-1.6,6.2-1.2,6.3,0.9c0.1,2.1,1.3,11,2.5,11.1c1.2,0.1,6.6-3.9,9-4.4c2.3-0.4,12.3-0.9,13.2,2.6c0.9,3.6-1,7.3-2.1,8.9
			c-1,1.6-0.4,4,1.2,5.8c1.6,1.9,3.8,6.6,13.5,5.3c9.6-1.3,23.5-6.6,25.9-7.7c2.3-1.1,7.5-0.4,10,2.4c2.5,2.8,10.9,6.2,8.7,8.5
			c-2.2,2.3-5.5-0.3-8.2-2.7c-2.7-2.4-6.6-7.2-10-4.3c-3.4,2.9-7.3,10.9-9.9,10.9c-2.6,0-25.4,0-30.6-2.9c-5.2-2.9-5.6-6.4-5.6-9.5
			s-5.5-9.1-7.1-8.9c-1.7,0.2-10.5,3.7-10.4,6.5c0.1,2.8,5.7,5.4,5.7,5.4s-18.4-7.4-24.4-10.2C111.2,47,95.4,38.6,95.8,34.8z"/>
		<path class="st2" d="M131.5,23.6c0,0,5.3-0.1,4.2,1.6c-1.2,1.7-2.3,4.8-4.2,2.9C129.7,26.2,128.8,24.8,131.5,23.6z"/>
		<path class="st2" d="M169.8,50.6c0.7,0,2.7,0.9,1.8,3.1c-0.9,2.2-2.6,5.1-4.8,2.7S168,50.8,169.8,50.6z"/>
		<path class="st2" d="M178.7,19.3c0.8,1.7,5.3,10.7,4.5,14.2c-0.8,3.4-2.5,6.6-4.5,7.4c-2.1,0.8-8.3,0.7-7.9-4.8
			c0.4-5.4,3.6-17.6,4.4-18.4C176,17,176.8,15.1,178.7,19.3z"/>
		<path class="st2" d="M201.5,49.5c0,0,6.4-12.1,12.1-17.7c5.7-5.6,15.2-13,27.5-16.7c12.3-3.7,17.3-4,19.2-6c1.9-2,0.6-4.8,4.3-4.8
			c3.6,0,3,2.4,6.6,3.3c3.6,0.9,5.6-0.3,8.2-1.5c2.6-1.2,3.2,1.5,7.8,0.4c4.5-1.1,5.1-4.6,7-3.8c1.9,0.8,3,1.2,1.4,4.8
			c-1.5,3.6-7.5,12.5-10,12.7c-2.5,0.3-10.4-3.7-11.9-5.7c-1.6-2-1.4-3.7-4.3-3.6c-2.9,0.1-10.5,3.1-16.4,5.7
			c-5.8,2.5-14.2,8.2-18,13.8c-5.4,8-5.7,10.5-7.4,14.2c-1.8,3.7-8.4,20-11,21.8c-2.6,1.8-7.2-2.9-9.3-4.9
			C205.1,59.5,200.4,51.4,201.5,49.5z"/>
		<path class="st2" d="M290.5,31.9c1.6-0.9,2.8-1.9,5.8,0c3,1.9,5.4,7.1,3,9.5c-2.4,2.4-8.1,1.2-10.1,0
			C287.3,40.3,287.1,33.9,290.5,31.9z"/>
		<path class="st2" d="M241.2,48.5c3-4.1,5.3-5,8.6-4.7c3.2,0.2,3.5,2.6,5.7,2.3c2.2-0.3,6.6-3.3,7-0.9c0.4,2.5,0.1,6.8-1.4,8.5
			c-1.6,1.7-4.3,3.1-6,4.1c-1.7,1-6.9,5.2-10,6.6c-3.1,1.3-10.8,2.5-10-2.8c0.8-5.4,1.6-7.8,3.7-10
			C240.9,49.3,240.4,49.5,241.2,48.5z"/>
		<path class="st2" d="M226.4,8.5c4-2.1,18-7.5,20.9-8.3c2.9-0.8,7.5,0.1,2.5,4.1c-5.1,4.1-22.6,11.6-26.5,12.3
			C219.4,17.4,217.3,13.4,226.4,8.5z"/>
	</g>
	<g id="ale-midtones">
		<path class="st6" d="M105.9,43.8c0,0-3.3-6.4-2.1-9.1c1.2-2.6,3.3-5.6,6.2-5.6c2.9,0,16.1,2.4,16.1,5.6c0,3.2-3.3,4.3-5.9,3.2
			c-2.6-1.1-6.9-3.7-8.7-1.5c-1.7,2.2-0.3,5.3,0.2,7.3C112.3,45.9,108.7,45.7,105.9,43.8z"/>
		<path class="st6" d="M135.5,52.4c0,0-1.3-0.6-4.8-0.4c-3.5,0.2-3.8,1.8-1.9,3.2c1.9,1.4,7.8,2.1,7.8,2.1S138.1,53.6,135.5,52.4z"
			/>
		<path class="st6" d="M143.2,47.4c0,0,4-2.5,6.6-2.1c2.6,0.4,4.3,1.5,3.6,5c-0.7,3.5-7.5,3.5-7.5,3.5L143.2,47.4"/>
		<path class="st6" d="M213.7,38.2c0,0,11-12.5,17.1-14.8c6.1-2.3,9.3-3,9.5-2.1c0.1,0.8-10.3,13.1-14.1,23.3
			c-3.9,10.2-5.2,13-5.2,13s-2.3,6.8-7.2,2.3c-4.9-4.5-8.6-10.7-7.2-14.2C207.9,42.4,213.2,38.8,213.7,38.2"/>
		<path class="st6" d="M292.4,36c0,0,2.7-1.1,3.9-0.8c1.2,0.3,5.1,2.5,1.4,3.7c-3.6,1.2-4.8,1.7-5.3,0.7
			C291.9,38.6,291.3,36.4,292.4,36z"/>
		<path class="st6" d="M240.3,54.7c0,0,4.4-3.4,6.1-3.2c1.7,0.3,4.4,1.6,3,4.9c-1.4,3.3-1.8,6.8-4.3,6.8c-2.5,0-6.6-1.5-6.2-3.7
			C239.2,57.2,238.7,55.8,240.3,54.7z"/>
	</g>
	<g id="ale-shadows">
		<path class="st7" d="M176.5,40c0,0,3.3,0.2,3.8-1.8c0.5-1.9-0.5-6.7-1.9-8.3c-1.4-1.6-4.8-1.1-5.4,1.8
			C172.6,34.5,172.7,41.8,176.5,40z"/>
		<path class="st7" d="M134.1,52.3c0,0,4.3-0.2,7.4-3.4c3-3.2,3.7-2.7,5.3-1.9c1.6,0.7,2.6,2.8,0.7,5.3c-1.9,2.5-8.7,5.8-12.3,4.9
			C131.5,56.4,129.6,53.6,134.1,52.3z"/>
		<path class="st7" d="M207.3,49c0,0-0.8-4,4.4-9c5.2-5,10.2-6.6,10.6-2.5c0.3,4.1,0.3,12.7-0.9,16.4c-1.2,3.7-2.4,7.9-7.3,3.9
			C209.2,53.8,207,51.7,207.3,49z"/>
		<path class="st7" d="M278.8,8.9c0,0,2.1-0.9,4.2,0c2.1,0.9,5.9,2.1,4.8,4.8c-1,2.7-2.4,6.9-5.9,5.3c-3.5-1.6-4.5-3.8-4.7-5.1
			C277.1,12.6,276.6,9.3,278.8,8.9z"/>
	</g>
</g>
</svg>
