<?xml-stylesheet type="text/css" href="../css/main-06.css"?>
<svg id="shield-svg" xmlns="http://www.w3.org/2000/svg" viewBox="0 0 300 300" onclick="window.open('http://www.dota2.com/international/announcement/');">
<style type="text/css">
<![CDATA[
	.st0{fill:#504238;stroke:#000000;stroke-miterlimit:10;}
	.st1{fill:#9F9691;stroke:#000000;stroke-miterlimit:10;}
	#rim{fill:#5B452D;stroke:#000000;stroke-miterlimit:10;}
	.st3{fill:#2A2424;stroke:#000000;stroke-miterlimit:10;}
	.st4{fill:#907B60;stroke:#000000;stroke-miterlimit:10;}
	.st5{fill:#9E9691;stroke:#000000;stroke-miterlimit:10;}
	.st6{fill:#D7C39B;stroke:#000000;stroke-miterlimit:10;}
	.st7{fill:#937F66;stroke:#000000;stroke-miterlimit:10;}
	.st8{fill:#C2AA8D;stroke:#000000;stroke-miterlimit:10;}
]]>
</style>
<g id="rim">
	<path class="st2" d="M37.385,141.5V123.91c0,0,1.925-9.849,3.272-14.67c1.348-4.823,5.52-13.969,5.52-14.512
		c0-0.543,0.086-1.133-0.557-1.45c-0.642-0.317-1.326-0.814-1.668,0c-0.343,0.815-4.022,8.603-6.033,13.765
		c-2.011,5.162-4.749,12.089-4.749,12.089s-2.011-1.629-2.268-3.531c-0.256-1.903-0.341-6.159-0.598-6.43
		c-0.257-0.272-1.327-0.769-1.541-0.453c-0.213,0.317-1.155,1.676-1.54,2.943c-0.813-1.449-2.139-3.622-2.139-3.622
		s1.07-4.393,2.182-6.747c1.114-2.354,2.824-6.293,4.835-7.743c2.011-1.448,3.337-1.81,4.407-1.856
		c1.068-0.044,1.54-0.271,1.283-0.633s-2.053-1.449-2.824-1.449c-0.769,0-2.139,0-2.139,0s1.369-2.717,3.081-5.434
		c1.712-2.717,10.525-14.897,14.504-18.882c3.979-3.984,7.358-7.607,9.241-9.01c1.883-1.404,5.048-3.758,8.728-5.117
		c3.68-1.358,4.963-1.721,3.979-2.038c-0.985-0.317-2.696-0.588-2.696-0.588s5.904-3.577,8.728-5.253
		c2.824-1.675,14.289-7.833,19.381-9.599c5.092-1.766,12.963-4.483,15.402-5.071c2.438-0.588,3.636-0.633,3.636-0.633
		s-1.112,2.173-4.063,3.758c-2.952,1.585-8.258,3.486-8.728,3.849c-0.471,0.362-0.642,1.404,0.042,1.358
		c0.685-0.045,2.995-0.77,6.248-1.856c3.25-1.086,13.904-3.939,16.128-4.392c2.226-0.454,3.38-0.906,3.209-1.584
		c-0.171-0.68-0.557-3.577-0.557-3.577s1.413-0.227,2.011-0.227c0.428,1.449,0.727,3.577,0.983,3.804
		c0.257,0.226,10.439-0.771,10.439-0.771s-0.086-1.359-0.77-1.676c-0.685-0.317-2.61-0.589-3.08-0.589
		c-0.471,0-1.199,0.046-1.199,0.046l-0.299-1.856l5.862-0.317c0,0,1.07,0.407,2.31,0.814c1.241,0.408,2.396,1.224,2.396,1.224
		s0.257,4.03,0.471,4.935s0.256,1.856,0.813,2.083c0.556,0.226,3.379,0.362,3.807-0.318c0.428-0.678,0.299-3.848,0.342-4.482
		c0.044-0.633,0-2.399,0-2.399s1.542-0.543,2.312-1.042c0.77-0.497,2.01-1.085,2.01-1.085s1.884,0.226,3.123,0.361
		c1.24,0.136,2.311,0.136,2.311,0.136v2.445c0,0-3.294,0.181-3.722,0.228c-0.428,0.045-0.771,1.357,0,1.494
		c0.771,0.136,5.348,0.454,7.358,0.771s2.524,0.317,2.524,0.317l0.3-3.804c0,0,1.197,0.136,1.796,0.136c0.6,0,0.6,0,0.6,0v4.257
		c0,0,7.786,1.63,12.064,2.853c4.278,1.222,11.809,4.121,12.835,3.938c1.027-0.18,0.343-0.814-0.77-1.448
		c-1.113-0.634-7.787-3.034-9.541-4.257c-1.754-1.222-2.867-3.034-2.867-3.034s5.221,0.997,10.482,2.763s13.22,4.754,16.855,6.384
		c3.638,1.629,5.349,2.626,9.369,4.845c4.022,2.218,4.922,3.079,7.189,4.482c2.267,1.404,3.593,2.4,3.593,2.4
		s-1.455,0.045-2.14,0.181c-0.685,0.136-0.427,0.905,0.301,0.997c0.727,0.09,2.651,0.543,5.005,1.404
		c2.354,0.86,6.417,4.119,9.754,6.882c3.338,2.762,6.076,5.116,9.927,9.689s6.845,8.513,9.969,12.905
		c3.122,4.391,5.434,8.558,5.434,8.558s-3.081,0.588-3.68,0.995c-0.6,0.408,0.256,0.408,2.053,1.087
		c1.797,0.679,3.851,2.4,5.178,5.162c1.326,2.762,4.577,11.048,4.577,11.048s-2.055,2.717-2.182,3.214
		c-0.813-1.539-1.242-2.626-1.669-2.762c-0.428-0.136-1.241,0-1.155,1.767c0.087,1.766,0.342,3.576-0.256,5.296
		c-0.6,1.721-1.54,3.351-1.54,3.351s-1.841-4.799-4.065-9.734c-2.225-4.937-4.449-9.555-5.477-11.456
		c-1.026-1.901-1.624-3.984-2.224-4.211c-0.6-0.227-1.326-0.363-1.626,0.045c-0.299,0.408-0.214,0.453,0.343,2.038
		c0.556,1.585,1.968,4.076,3.165,7.517c1.199,3.44,2.311,7.108,3.209,10.142c0.898,3.033,1.668,6.612,2.097,8.558
		c0.428,1.946,0.642,3.985,0.94,7.788c0.301,3.804,0.385,9.781,0.6,10.279c0.214,0.498,0.47,0.996,1.283,0.362
		c0.813-0.633,2.866-2.49,5.348-3.713c2.481-1.222,4.663-2.31,6.974-2.898s3.766-0.725,3.766-0.725s0.727,1.857,0.77,3.215
		c0.042,1.359,0,2.897,0,2.897s-5.947-0.452-9.198,1.722c-3.251,2.173-5.945,4.709-7.657,8.557
		c-1.712,3.849-3.125,10.687-3.724,14.489c-0.598,3.804-2.61,10.731-4.492,14.309c-1.882,3.576-5.306,8.92-7.572,12.86
		c-2.267,3.938-4.491,9.236-6.631,13.086c-2.14,3.848-8.984,12.678-12.021,16.028c-3.039,3.351-7.06,8.195-11.595,11.184
		s-9.242,6.067-13.649,8.377c-4.405,2.31-6.416,3.033-6.674,3.939c-0.257,0.904-0.641,4.89-1.496,8.286s-1.883,6.791-2.61,8.965
		c-0.727,2.173-3.722,8.829-3.722,8.829s-1.711-2.308-2.011-2.444c-0.299-0.136-0.556,0-0.599,1.132s-0.557,5.433-1.584,7.652
		c-1.025,2.218-3.637,5.931-6.159,7.29c-2.524,1.357-5.006,1.63-6.376,1.676c-1.369,0.044-1.369,0.044-1.369,0.044
		s0.3-6.519-1.196-10.368c-1.499-3.849-4.065-8.965-5.905-10.46c-1.839-1.494-2.524-2.082-2.524-2.082s0.642-2.853,1.197-2.943
		c0.557-0.091,4.108-0.634,5.819-1.224c1.712-0.588,6.589-2.762,7.444-2.941c0.855-0.183,1.797-0.228,2.396,0.405
		c0.6,0.635,2.909,1.178,2.481-0.18c-0.428-1.359-1.668-3.216-2.31-3.669c-0.643-0.452-1.113-0.271-2.354,0.136
		c-1.241,0.408-5.519,2.445-8.343,2.718c-2.823,0.271-7.528,0.317-8.556,0.362c-1.026,0.045-1.52,0.226-1.52,0.226l-1.027,1.088
		c0,0-3.657,0.136-4.042,0.136s-0.556,0.181-0.685,0.497c-0.128,0.317-0.728,1.448-0.728,1.448l-4.064,0.047
		c0,0,0.085-1.767-0.043-1.948c-0.128-0.18-0.042-0.406-1.154-0.406c-1.113,0-4.065,0.045-4.065,0.045l-0.77-1.45
		c0,0-3.422,0.183-6.375,0.137c-2.953-0.045-8.257-1.359-10.182-1.813c-1.926-0.452-2.476-0.769-2.928-0.769
		c-0.453,0-1.394,0.227-2.164,1.177c-0.77,0.951-2.481,2.99-1.583,3.307c0.899,0.317,1.755-0.001,2.268-0.59
		c0.514-0.589,1.114-1.041,3.209-0.181s5.776,2.311,8,2.808c2.224,0.498,4.92,0.453,4.92,0.453s0.385,1.945,1.412,3.169
		c-2.653,2.535-5.391,5.661-6.674,8.332c-1.284,2.67-1.926,3.396-2.696,6.52s-0.984,8.604-0.984,8.604s-4.406,0.316-7.658-1.857
		c-3.251-2.173-6.889-5.207-7.273-9.327c-0.384-4.121-0.428-5.614-0.213-6.339c0.213-0.725-0.417-0.656-0.739-0.419
		c-0.32,0.237-1.508,0.68-1.571,1.8c-0.065,1.121,0.192,2.615,0.192,2.615s-1.316-1.053-2.214-3.497
		c-0.899-2.445-3.369-8.559-4.171-12.328c-0.802-3.769-2.342-11.274-2.375-12.089c-0.032-0.816-1.475-1.257-1.86-1.461
		s-6.739-3.057-10.204-5.162c-3.466-2.105-13.381-9.032-16.878-12.396c-3.498-3.361-6.834-7.199-9.498-10.153
		c-2.663-2.955-6.256-7.506-7.99-11.071c-1.732-3.564-5.326-11.207-7.059-13.244c-1.732-2.037-5.583-7.721-7.123-10.617
		c-1.541-2.898-4.578-10.459-5.349-15.668c-0.769-5.206-3.551-13.084-5.048-15.575c-1.497-2.491-5.006-6.612-8.557-8.105
		c-3.55-1.494-9.839-1.268-9.839-1.268s0.513-4.346,0.94-5.071c1.198-0.091,4.878-0.363,9.798,2.31
		C33.042,139.146,37.192,141.772,37.385,141.5z M5.939,182.659c0,0,4.364-0.204,16.878-0.271
		c12.514-0.068,18.674,7.132,22.269,10.867c3.593,3.736,9.626,14.263,11.936,19.832c2.31,5.57,3.594,14.128,4.107,18.609
		c0.514,4.483,1.668,20.92,1.925,25.131c0.256,4.212,1.155,13.991,1.155,13.991s10.267,7.063,16.3,10.663
		c6.032,3.6,20.921,10.188,25.092,11.614c4.17,1.427,20.792,7.403,41.328,7.403c20.536,0,16.045,0.135,31.51-2.31
		c15.467-2.445,27.531-7.743,38.12-12.564c10.589-4.822,26.761-17.048,26.761-17.048s2.054-25.742,2.374-31.175
		c0.321-5.434,1.219-9.917,1.925-16.369s2.695-10.663,5.647-17.659c2.953-6.995,7.573-12.021,11.68-16.164
		c4.107-4.143,10.011-5.433,12.964-6.181c2.952-0.747,19.381-1.086,19.381-1.086s1.476-5.773,2.373-12.77
		c0.9-6.995,0.835-17.592,0.835-24.994c0-7.404-1.862-15.417-3.53-25.333c-1.667-9.917-6.931-22.345-9.24-28.119
		c-2.311-5.774-10.781-19.085-14.503-24.383c-3.722-5.297-10.461-13.108-14.375-17.591c-3.916-4.482-15.21-13.652-19.639-16.979
		c-4.427-3.328-14.567-9.305-20.086-12.292c-5.519-2.989-16.172-7.201-24.386-9.849c-8.215-2.649-22.911-5.434-28.879-6.181
		C159.894,0.705,149.754,0.5,146.353,0.5s-11.102,0.408-19.895,1.426c-8.791,1.019-24.514,5.026-32.407,8.083
		c-7.894,3.057-17.713,7.947-27.082,13.176c-9.369,5.23-16.365,11.886-23.744,18.746c-7.38,6.86-17.456,21.259-21.049,26.624
		c-3.594,5.366-7.508,13.448-12.001,24.111c-4.493,10.663-7.508,24.655-8.792,35.182c-1.284,10.528-0.963,20.309-0.321,32.942
		s4.429,21.326,4.429,21.326L5.939,182.659z"/>
</g>
<g id="inner-color_1_">
	<path class="st3" d="M143.764,288.658c0,0,3.338-2.627,5.305-6.249c1.969-3.622,3.679-8.965,3.937-11.047c0.256-2.083,0-4.8,0-4.8
		h3.421c0,0,0.087,5.795,1.37,9.418c1.283,3.622,2.568,7.729,4.278,9.435c1.71,1.703,3.594,3.243,3.594,3.243l-6.418,0.362
		c0,0-2.652-3.622-3.336-5.705c-0.685-2.083-0.941-2.626-2.055-0.181c-1.112,2.445-3.764,5.886-3.764,5.886h-6.76L143.764,288.658z
		 M28.122,136.475c-4.919-2.672-8.6-2.4-9.798-2.31c-0.428,0.725-0.94,5.071-0.94,5.071s6.289-0.226,9.839,1.268
		c3.551,1.494,7.06,5.615,8.557,8.105c1.498,2.491,4.279,10.369,5.048,15.575c0.771,5.209,3.808,12.77,5.349,15.668
		c1.54,2.896,5.39,8.58,7.123,10.617c1.733,2.037,5.327,9.68,7.059,13.244c1.733,3.565,5.327,8.116,7.99,11.071
		c2.664,2.954,6,6.792,9.498,10.153c3.498,3.363,13.413,10.29,16.878,12.396c3.465,2.105,9.818,4.958,10.204,5.162
		s1.828,0.645,1.86,1.461c0.033,0.814,1.573,8.32,2.375,12.089c0.802,3.77,3.272,9.883,4.171,12.328
		c0.897,2.444,2.214,3.497,2.214,3.497s-0.257-1.494-0.192-2.615c0.063-1.12,1.251-1.563,1.571-1.8
		c0.321-0.237,0.952-0.306,0.739,0.419c-0.214,0.725-0.171,2.218,0.213,6.339c0.385,4.12,4.022,7.154,7.273,9.327
		c3.251,2.174,7.658,1.857,7.658,1.857s0.214-5.479,0.984-8.604s1.412-3.85,2.696-6.52c1.283-2.671,4.021-5.797,6.674-8.332
		c-1.027-1.224-1.412-3.169-1.412-3.169s-2.696,0.045-4.92-0.453c-2.225-0.497-5.905-1.947-8-2.808s-2.696-0.408-3.209,0.181
		c-0.512,0.589-1.369,0.907-2.268,0.59c-0.898-0.316,0.814-2.355,1.583-3.307c0.771-0.95,1.711-1.177,2.164-1.177
		c0.452,0,1.001,0.316,2.928,0.769c1.925,0.453,7.229,1.768,10.182,1.813c2.952,0.046,6.375-0.137,6.375-0.137l0.77,1.45
		c0,0,2.952-0.045,4.065-0.045c1.112,0,1.026,0.227,1.154,0.406c0.128,0.182,0.043,1.948,0.043,1.948l4.064-0.047
		c0,0,0.6-1.131,0.728-1.448c0.129-0.316,0.3-0.497,0.685-0.497s4.042-0.136,4.042-0.136l1.027-1.088c0,0,0.493-0.181,1.52-0.226
		c1.027-0.045,5.732-0.092,8.556-0.362c2.824-0.272,7.102-2.31,8.343-2.718c1.24-0.407,1.711-0.588,2.354-0.136
		c0.642,0.453,1.882,2.31,2.31,3.669c0.428,1.357-1.882,0.814-2.481,0.18c-0.599-0.633-1.54-0.588-2.396-0.405
		c-0.855,0.18-5.732,2.354-7.444,2.941c-1.711,0.59-5.263,1.133-5.819,1.224c-0.556,0.091-1.197,2.943-1.197,2.943
		s0.686,0.588,2.524,2.082c1.84,1.495,4.406,6.611,5.905,10.46c1.496,3.85,1.196,10.368,1.196,10.368s0,0,1.369-0.044
		c1.37-0.046,3.852-0.318,6.376-1.676c2.522-1.359,5.134-5.072,6.159-7.29c1.027-2.22,1.541-6.521,1.584-7.652
		s0.3-1.268,0.599-1.132c0.3,0.137,2.011,2.444,2.011,2.444s2.995-6.656,3.722-8.829c0.728-2.174,1.755-5.568,2.61-8.965
		s1.239-7.382,1.496-8.286c0.258-0.906,2.269-1.63,6.674-3.939c4.407-2.31,9.114-5.389,13.649-8.377s8.556-7.833,11.595-11.184
		c3.037-3.351,9.882-12.181,12.021-16.028c2.14-3.85,4.364-9.147,6.631-13.086c2.267-3.94,5.69-9.284,7.572-12.86
		c1.882-3.577,3.895-10.505,4.492-14.309c0.599-3.803,2.012-10.641,3.724-14.489c1.712-3.848,4.406-6.384,7.657-8.557
		c3.251-2.174,9.198-1.722,9.198-1.722s0.042-1.539,0-2.897c-0.043-1.358-0.77-3.215-0.77-3.215s-1.455,0.136-3.766,0.725
		s-4.492,1.676-6.974,2.898c-2.481,1.223-4.535,3.08-5.348,3.713c-0.813,0.634-1.069,0.136-1.283-0.362
		c-0.215-0.498-0.299-6.475-0.6-10.279c-0.299-3.803-0.513-5.841-0.94-7.788c-0.429-1.946-1.198-5.525-2.097-8.558
		c-0.898-3.034-2.01-6.702-3.209-10.142c-1.197-3.441-2.609-5.932-3.165-7.517c-0.557-1.584-0.642-1.629-0.343-2.038
		c0.3-0.408,1.026-0.271,1.626-0.045c0.6,0.227,1.197,2.31,2.224,4.211c1.027,1.901,3.252,6.52,5.477,11.456
		c2.225,4.935,4.065,9.734,4.065,9.734s0.94-1.63,1.54-3.351c0.598-1.72,0.343-3.531,0.256-5.296
		c-0.086-1.767,0.728-1.903,1.155-1.767c0.427,0.136,0.856,1.223,1.669,2.762c0.127-0.498,2.182-3.214,2.182-3.214
		s-3.251-8.287-4.577-11.048c-1.327-2.762-3.381-4.482-5.178-5.162c-1.797-0.68-2.652-0.68-2.053-1.087
		c0.599-0.407,3.68-0.995,3.68-0.995s-2.312-4.167-5.434-8.558c-3.124-4.392-6.118-8.332-9.969-12.905s-6.589-6.928-9.927-9.689
		c-3.337-2.763-7.399-6.022-9.754-6.882c-2.354-0.86-4.278-1.314-5.005-1.404c-0.728-0.091-0.985-0.86-0.301-0.997
		c0.685-0.136,2.14-0.181,2.14-0.181s-1.326-0.996-3.593-2.4c-2.268-1.403-3.167-2.264-7.189-4.482
		c-4.021-2.219-5.731-3.216-9.369-4.845c-3.636-1.63-11.594-4.618-16.855-6.384s-10.482-2.763-10.482-2.763s1.113,1.812,2.867,3.034
		c1.754,1.223,8.428,3.623,9.541,4.257c1.112,0.634,1.797,1.268,0.77,1.448c-1.026,0.183-8.557-2.716-12.835-3.938
		c-4.278-1.223-12.064-2.853-12.064-2.853v-4.257c0,0,0,0-0.6,0c-0.599,0-1.796-0.136-1.796-0.136l-0.3,3.804
		c0,0-0.514,0-2.524-0.317s-6.588-0.635-7.358-0.771c-0.771-0.136-0.428-1.449,0-1.494c0.428-0.046,3.722-0.228,3.722-0.228v-2.445
		c0,0-1.07,0-2.311-0.136c-1.239-0.136-3.123-0.361-3.123-0.361s-1.24,0.588-2.01,1.085c-0.77,0.499-2.312,1.042-2.312,1.042
		s0.044,1.766,0,2.399c-0.043,0.634,0.086,3.805-0.342,4.482c-0.428,0.68-3.251,0.543-3.807,0.318
		c-0.557-0.227-0.599-1.178-0.813-2.083s-0.471-4.935-0.471-4.935s-1.155-0.815-2.396-1.224c-1.24-0.407-2.31-0.814-2.31-0.814
		l-5.862,0.317l0.299,1.856c0,0,0.728-0.046,1.199-0.046c0.47,0,2.396,0.272,3.08,0.589c0.684,0.316,0.77,1.676,0.77,1.676
		s-10.182,0.996-10.439,0.771c-0.256-0.227-0.556-2.355-0.983-3.804c-0.599,0-2.011,0.227-2.011,0.227s0.386,2.897,0.557,3.577
		c0.17,0.678-0.984,1.131-3.209,1.584c-2.224,0.453-12.878,3.305-16.128,4.392c-3.253,1.087-5.563,1.812-6.248,1.856
		c-0.684,0.046-0.513-0.996-0.042-1.358c0.47-0.363,5.776-2.264,8.728-3.849c2.952-1.584,4.063-3.758,4.063-3.758
		s-1.197,0.045-3.636,0.633c-2.439,0.588-10.311,3.306-15.402,5.071c-5.092,1.767-16.557,7.924-19.381,9.599
		c-2.824,1.676-8.728,5.253-8.728,5.253s1.711,0.271,2.696,0.588c0.983,0.317-0.299,0.68-3.979,2.038
		c-3.679,1.359-6.845,3.713-8.728,5.117c-1.882,1.402-5.262,5.026-9.241,9.01C46.433,69.279,37.62,81.46,35.908,84.177
		c-1.711,2.717-3.081,5.434-3.081,5.434s1.37,0,2.139,0c0.771,0,2.567,1.086,2.824,1.449s-0.215,0.589-1.283,0.633
		c-1.07,0.046-2.396,0.408-4.407,1.856c-2.011,1.45-3.721,5.39-4.835,7.743c-1.112,2.354-2.182,6.747-2.182,6.747
		s1.327,2.173,2.139,3.622c0.385-1.267,1.327-2.626,1.54-2.943c0.214-0.316,1.284,0.181,1.541,0.453
		c0.257,0.271,0.342,4.527,0.598,6.43c0.257,1.901,2.268,3.531,2.268,3.531s2.738-6.928,4.749-12.089
		c2.011-5.162,5.69-12.95,6.033-13.765c0.342-0.814,1.026-0.317,1.668,0c0.643,0.317,0.557,0.907,0.557,1.45
		c0,0.542-4.172,9.689-5.52,14.512c-1.348,4.822-3.272,14.67-3.272,14.67V141.5C37.192,141.772,33.042,139.146,28.122,136.475z"/>
</g>
<g id="inner-plates">
	<g id="left-plate">
		<path class="st1" d="M87.376,62.985c0,0,0.6,5.796,3.423,11.139s6.331,11.501,14.803,18.203c8.47,6.701,11.551,12.134,10.951,16.3
			c-0.598,4.166-1.796,11.501-10.011,17.025c-8.213,5.523-8.641,6.158-8.641,6.158s0.343,3.894,1.198,7.425
			c0.855,3.533,2.139,8.785,4.193,13.042c2.053,4.256,3.936,7.878,6.587,11.229c2.654,3.352,5.648,6.612,8.728,8.514
			c3.081,1.9,11.467,6.883,15.573,8.239c4.108,1.359,8.558,2.718,18.996,3.985c10.439,1.268,12.151,1.268,17.97,2.265
			c5.818,0.996,15.658,3.079,20.107,7.426c4.45,4.347,10.951,12.948,9.841,21.01c-1.112,8.06-2.311,12.497-9.242,16.662
			c-6.931,4.166-12.408,7.154-20.108,7.971c-7.7,0.813-20.791,1.719-29.006,0.452c-8.214-1.269-15.658-2.265-23.616-5.706
			c-7.957-3.441-17.882-9.236-22.503-12.496c-4.621-3.261-13.691-11.14-16.685-15.034c-2.995-3.894-9.669-12.315-12.322-17.024
			c-2.653-4.709-8.729-16.663-10.182-21.463c-1.455-4.799-3.508-14.489-3.851-19.38c-0.342-4.89-0.855-16.119-0.428-20.827
			c0.428-4.71,1.882-13.947,3.337-18.112c1.455-4.165,4.792-13.312,7.615-18.112c2.824-4.799,8.471-12.95,11.037-15.576
			C77.707,73.672,87.376,62.985,87.376,62.985z"/>
	</g>
	<g id="right-plate">
		<path class="st5" d="M219.917,216.936c0,0,13.606-13.675,18.313-21.824c4.705-8.15,5.561-9.961,7.443-14.67
			c1.882-4.709,5.305-17.842,5.732-22.368c0.428-4.528,1.198-8.514,1.198-15.667c0-7.154-0.855-16.664-1.71-20.648
			c-0.857-3.985-2.996-11.863-4.621-16.21c-1.627-4.348-5.819-13.402-8.899-18.383c-3.081-4.981-9.755-13.312-12.749-16.482
			c-2.995-3.169-15.658-13.403-21.734-16.482c-6.075-3.079-22.333-10.324-29.35-11.591c-7.017-1.268-18.653-2.627-24.043-2.536
			c-5.391,0.09-14.411,0.363-22.393,2.898c-7.983,2.536-10.55,3.803-13.202,5.614c-2.653,1.812-6.93,6.611-7.444,8.875
			c0,0-1.798,8.694,3.251,13.765c5.048,5.071,7.872,7.063,11.894,8.332c4.021,1.267,10.181,2.716,21.732,3.622
			s22.418,1.812,32.087,6.339c9.67,4.528,18.653,9.78,23.959,18.203c5.306,8.421,7.444,14.126,8.471,18.021
			c1.027,3.895,1.712,10.504,1.712,10.504s-10.525,6.16-12.235,8.333c-1.712,2.173-6.505,7.698-5.648,14.49
			c0.855,6.791,2.823,9.689,8.813,16.663c5.989,6.973,12.064,13.946,14.632,20.919C217.693,203.623,219.917,216.936,219.917,216.936
			z"/>
	</g>
</g>
<g id="center">
	<g id="outside-ring">
		<path class="st7" d="M142.694,101.021c0,0,4.878-1.403,9.926-1.403c5.05,0,10.354,0.861,12.75,1.947
			c2.395,1.087,9.37,5.026,12.149,8.332c2.781,3.305,6.118,7.426,7.445,11.048c1.326,3.622,3.55,9.96,2.566,15.303
			c-0.984,5.344-2.866,11.003-6.931,16.166c-4.064,5.161-10.268,10.278-15.06,11.771c-4.793,1.496-14.461,3.352-21.221,0.319
			c-6.759-3.035-12.149-5.888-15.573-10.507c-3.422-4.618-7.701-9.6-7.829-17.976c-0.127-8.376-0.855-9.916,1.755-15.893
			c2.609-5.977,6.759-11.275,8.342-12.769C132.598,105.866,138.63,102.243,142.694,101.021z"/>
	</g>
	<g id="petals">
		<g>
			<path class="st6" d="M180.557,146.707c0,0,3.081,2.988,3.551,4.302c0.472,1.313,1.156,3.396,0.515,6.068
				c-0.642,2.671-0.595,4.663-1.901,5.026c-1.307,0.362-5.157,0.769-6.228,0.725c-1.07-0.046-2.481-0.137-3.381-0.952
				c-0.897-0.815-3.892-4.754-3.892-4.754l2.951-2.038c0,0,2.311,3.441,3.68,3.803c1.369,0.363,2.695,0.183,3.21-0.09
				c0.512-0.271,1.882-1.223,2.181-2.716c0.3-1.495,0.214-2.854-0.513-3.985c-0.729-1.132-2.396-2.943-2.396-2.943L180.557,146.707z
				"/>
			<path class="st6" d="M144.363,103.646c0,0,0.214-4.663,0.343-5.116c0.128-0.453,2.267-3.125,3.679-4.075
				c1.411-0.951,3.165-2.491,3.894-2.491c0.728,0,1.412,0,2.267,0.77c0.855,0.77,4.278,3.894,5.092,4.709
				c0.813,0.814,1.154,1.04,1.24,2.263c0.086,1.222,0,3.938,0,3.938s-2.994-0.226-3.336-0.226c-0.343,0,0.171-3.125-0.686-4.529
				c-0.855-1.402-1.669-2.534-2.267-2.625c-0.6-0.091-1.841-0.317-2.739-0.045c-0.897,0.271-2.353,1.584-2.609,2.038
				c-0.256,0.452-0.685,4.618-0.685,4.618L144.363,103.646z"/>
			<path class="st6" d="M167.724,105.957c0,0,3.079-2.943,4.105-3.216c1.026-0.271,3.21-0.181,5.392,0
				c2.183,0.182,3.851,0.318,4.578,0.905c0.727,0.59,1.068,0.363,1.068,1.858c0,1.494,0.386,4.935,0.386,5.568
				c0,0.635,0.129,1.404-0.556,2.084c-0.685,0.678-3.894,3.848-3.894,3.848l-2.182-2.808c0,0,2.909-2.173,3.251-3.08
				c0.342-0.905,0.128-2.535-0.728-3.712c-0.854-1.178-2.515-2.309-3.652-2.264c-1.139,0.045-2.765,0.633-3.278,1.177
				c-0.513,0.543-1.84,1.993-1.84,1.993L167.724,105.957z"/>
			<path class="st6" d="M182.654,123.252c0,0,3.081,0.317,4.877,1.224c1.797,0.905,3.593,2.399,4.749,4.075
				c1.155,1.675,1.968,2.988,2.396,3.577c0.429,0.588,0.044,1.042-0.471,1.585c-0.513,0.544-1.882,2.763-3.209,3.94
				c-1.326,1.176-1.54,1.901-3.166,2.082c-1.625,0.181-5.476,0-5.476,0l0.599-3.894c0,0,1.968,0.317,3.637,0
				s2.439-1.087,2.951-1.902c0.515-0.815,0.643-2.489,0-3.623c-0.641-1.132-2.053-2.399-3.121-2.58
				c-1.071-0.182-3.158-0.317-3.158-0.317L182.654,123.252z"/>
			<path class="st6" d="M162.76,160.608c0,0,0.514,5.072,0,5.886c-0.514,0.815-5.177,6.747-6.417,7.199
				c-1.241,0.453-1.968,0.86-3.595-0.361c-1.626-1.224-4.792-3.582-5.305-5.957c-0.514-2.375-0.471-7.265-0.471-7.265
				s1.798,0.68,2.482,0.77c0.685,0.091,1.241,0.181,1.241,0.181s-0.3,5.026,0.343,5.797c0.641,0.77,1.839,2.173,2.994,2.263
				c1.154,0.091,3.765-0.995,4.535-2.399c0.771-1.403,0.727-1.765,0.727-2.853c0-1.086-0.129-2.625-0.129-2.625
				s1.413,0.044,1.841-0.091C161.433,161.016,162.76,160.608,162.76,160.608z"/>
			<path class="st6" d="M140.812,157.937c0,0-2.395,2.898-3.85,3.85c-1.455,0.95-2.524,1.767-5.305,1.585
				c-2.781-0.182-5.776-0.635-6.46-1.177c-0.685-0.545-0.813-1.45-0.813-3.035s-0.128-5.026,0-5.977
				c0.128-0.951,0.257-1.539,1.327-2.672c1.069-1.132,3.294-3.35,3.294-3.35s0.727,0.95,1.198,1.449
				c0.47,0.498,1.112,1.358,1.112,1.358s-2.097,1.357-2.909,2.31c-0.813,0.95-1.369,2.4-1.198,3.26
				c0.171,0.86,0.427,2.264,1.24,2.807c0.813,0.543,1.711,1.224,3.038,1.224c1.326,0,3.594-0.771,4.535-1.767
				c0.941-0.995,1.796-1.902,1.796-1.902s0.514,0.272,1.07,0.68S140.812,157.937,140.812,157.937z"/>
			<path class="st6" d="M126.266,141.364c0,0-4.62,0.271-6.417-0.408c-1.796-0.678-3.273-1.901-4.171-3.192
				c-0.899-1.29-2.31-2.512-2.695-3.6c-0.386-1.086-0.706-1.392,0-2.632c0.706-1.239,3.786-4.567,4.749-5.179
				c0.963-0.611,2.888-1.631,4.621-1.834s2.632,0,2.632,0s-0.065,1.699-0.065,2.174c0,0.475,0.021,1.584,0.021,1.584
				s-3.894-0.271-5.133,0.453c-1.242,0.725-2.567,2.816-2.31,4.192c0.255,1.377,1.026,2.826,2.31,3.505
				c1.283,0.68,5.305,0.453,5.305,0.453s0.213,1.721,0.47,2.445C125.838,140.051,126.266,141.364,126.266,141.364z"/>
			<path class="st6" d="M127.464,118.001c0,0-3.679-2.718-3.979-3.985c-0.299-1.268-0.128-7.426,0-8.648
				c0.128-1.223,0.855-2.309,2.097-2.4c1.241-0.091,6.546-0.227,7.316-0.181c0.771,0.045,0.771,0.09,1.839,0.859
				c1.069,0.771,3.808,3.215,3.808,3.215s-1.711,0.861-2.824,1.766c-1.198-1.177-2.524-3.079-3.551-3.034
				c-1.027,0.045-2.439-0.317-3.508,0.633c-1.07,0.951-2.226,2.636-2.139,3.561c0.085,0.923,0.128,2.191,0.642,2.735
				c0.513,0.542,2.78,2.399,2.78,2.399S127.721,116.823,127.464,118.001z"/>
		</g>
	</g>
	<g id="sub-ring_1_">
		<path class="st7" d="M143.81,104.097c0,0,4.407-1.269,8.968-1.269c4.561,0,9.354,0.778,11.519,1.759
			c2.163,0.982,8.465,4.542,10.977,7.528s5.527,6.708,6.725,9.981c1.199,3.272,3.21,9,2.32,13.826
			c-0.89,4.829-2.59,9.941-6.262,14.606c-3.673,4.663-9.276,9.285-13.606,10.636c-4.328,1.349-13.064,3.026-19.171,0.286
			c-6.107-2.741-10.977-5.318-14.069-9.491c-3.092-4.173-6.958-8.673-7.073-16.241c-0.117-7.567-0.774-8.958,1.583-14.357
			c2.359-5.4,6.108-10.187,7.538-11.536C134.688,108.474,140.138,105.202,143.81,104.097z"/>
	</g>
	<g id="center-pattern">
		<g id="swirl">
			<path class="st0" d="M129.903,120.31c0,0,1.026-2.083,2.824-4.528c1.796-2.445,3.679-5.388,9.198-6.542
				c5.519-1.156,6.675-0.884,6.675-0.884s-2.953,1.154-5.328,2.514c-2.374,1.358-4.106,2.105-5.583,4.279s-2.888,4.144-3.337,5.162
				c-0.45,1.019-0.193,2.037-0.707,2.037c-0.513,0-2.374-0.271-2.695-0.747C130.629,121.125,130.138,120.716,129.903,120.31z"/>
			<path class="st0" d="M161.69,108.016c1.012-0.641,1.732-1.833,3.4-0.543c1.668,1.291,4.301,2.853,6.097,4.754
				c1.797,1.902,3.017,3.871,3.723,5.706c0.706,1.834,0,6.316,0,6.316s-1.604-5.501-3.337-7.199
				c-1.733-1.698-5.583-5.026-8.215-6.044S160.258,108.923,161.69,108.016z"/>
			<path class="st0" d="M177.927,120.921c0,0,2.117,2.989,2.245,6.181c0.129,3.192,0.193,4.821,0,6.656
				c-0.191,1.834-0.706,4.007-0.706,4.007s-3.786-4.482-3.786-5.298c0-0.814,1.155-4.619,1.604-6.452
				C177.733,124.182,177.927,122.551,177.927,120.921z"/>
			<path class="st0" d="M174.846,136.407c0,0,1.091,1.019,1.861,2.513c0.771,1.495,1.28,3.26,1.28,3.26s-1.28,3.464-3.142,4.958
				c-1.861,1.495-3.178,3.329-6.786,3.6c-3.609,0.271-8.486-0.611-8.486-0.611s5.1-1.563,8.486-4.414
				c3.385-2.853,4.99-4.687,5.889-6.996C174.846,136.407,174.846,136.407,174.846,136.407z"/>
			<path class="st0" d="M151.55,150.789c0,0,0.065,0.627-0.962,2.122c-1.026,1.494-3.016,2.92-3.016,2.92s2.824,1.698,7.316,1.493
				c4.491-0.202,11.294-2.512,11.294-2.512s-5.903-1.426-9.305-2.378C153.476,151.484,151.55,150.789,151.55,150.789z"/>
			<path class="st0" d="M147.572,150.263c0,0-5.647-2.99-7.059-4.211c-1.411-1.223-4.236-5.366-4.877-6.792
				c-0.642-1.426-1.925-4.347-1.925-4.347s-0.449,1.767-0.32,5.909c0.128,4.143,0.384,5.23,2.053,7.539
				c1.668,2.31,2.823,3.261,4.556,4.483c1.733,1.224,3.658,1.698,3.658,1.698s1.476-0.611,2.247-1.698
				C146.673,151.757,147.251,150.94,147.572,150.263z"/>
			<path class="st0" d="M128.641,124.249c0,0-0.963,4.075-0.963,6.385c0,2.31,0.45,4.822,0.963,7.131
				c0.513,2.31,1.262,4.212,1.262,4.212s2.203-10.324,2.395-12.633c0.193-2.311,0-3.261,0-3.261S130.309,126.15,128.641,124.249z"/>
			<path class="st0" d="M143.85,106.183c0,0,5.004-1.494,9.113-1.155c4.106,0.34,7.251,0.553,7.251,0.553s-2.054,1.146-2.566,1.825
				C155.658,106.998,151.55,106.318,143.85,106.183z"/>
			<path class="st0" d="M155.85,110.801c0,0-5.774,0.271-8.663,1.426c-2.888,1.155-4.877,2.717-6.032,4.076
				c-1.155,1.358-3.465,6.044-3.465,6.044h4.043c0,0,1.027-3.192,4.428-5.298c3.401-2.105,5.39-2.716,7.509-2.716
				c2.117,0,2.117,0,2.117,0L155.85,110.801z"/>
			<path class="st0" d="M160.214,111.616c0,0,3.209,1.019,5.263,2.92c2.053,1.903,5.069,5.298,5.647,7.812
				c0.578,2.513,0.898,3.192,0.898,4.619s0,3.668,0,3.668l-1.989-1.29c0,0-1.155-6.86-2.76-9.17
				c-1.604-2.309-3.017-3.831-4.493-4.836c-1.476-1.005-2.566-1.072-2.566-1.072V111.616z"/>
			<path class="st0" d="M169.071,133.894l2.438,1.019c0,0-1.091,3.6-4.235,6.181c-3.146,2.581-7.251,4.89-10.781,5.297
				c-3.529,0.408-3.594,0-3.594,0v-2.792c0,0,4.634,0.619,7.996-1.146c3.362-1.766,5.096-2.921,6.508-5.162
				C168.813,135.048,169.071,133.894,169.071,133.894z"/>
			<path class="st0" d="M138.779,126.763c0,0-0.344,4.821,1.689,8.149c2.034,3.328,2.674,4.347,4.664,6.044
				c1.99,1.699,4.235,1.902,4.235,1.902v2.92c0,0-3.208-1.087-5.518-2.92s-3.895-3.463-5.091-6.18
				c-1.198-2.717-2.29-5.162-2.29-7.335c0-2.175,0-2.581,0-2.581H138.779z"/>
		</g>
		<g id="center-pattern_1_">
			<g>
				<path class="st8" d="M154.246,133.894c0,0-5.262-5.721-6.032-6.053c-0.771-0.332-2.567,0.212-2.567,0.551s-0.385,1.97,0,3.328
					c0.385,1.358,0.514,2.92,1.925,3.668c1.412,0.747,2.631,1.086,3.978,0.883C152.898,136.066,154.311,134.98,154.246,133.894z"/>
				<path class="st8" d="M156.877,117.796c-0.124,1.013-0.771,3.872,0.513,4.211c1.285,0.34,6.867,3.601,6.996,2.581
					c0.128-1.019-0.321-1.766-1.027-2.581S157.038,116.493,156.877,117.796z"/>
				<path class="st8" d="M152.642,117.57c0,0-2.311-0.181-4.042,1.518c-1.733,1.698-3.124,3.735-3.124,3.735
					s9.604,2.853,12.107,5.434c2.502,2.581,3.85,4.007,2.631,5.229c-1.219,1.223-2.245,3.465-2.245,3.465s2.182-0.884,3.464-2.039
					c1.285-1.155,2.761-2.879,2.761-2.879s-2.695-4.32-3.979-5.271c-1.283-0.952-5.135-3.533-7.315-4.416
					c-2.183-0.882-2.76-1.631-2.118-2.377C151.423,119.223,152.642,117.57,152.642,117.57z"/>
			</g>
		</g>
		<g id="center-circle">
			<path class="st4" d="M143.208,132.195c-0.706-1.019-0.578-6.587,0-9.304c0.577-2.717,5.391-5.91,8.278-6.86
				c2.889-0.952,6.995,0.339,10.141,2.376c3.144,2.038,4.491,5.91,4.877,9.238c0.384,3.327-0.803,6.078-3.658,9.101
				c-2.856,3.022-7.645,3.345-8.985,3.192C147.315,139.191,143.914,133.215,143.208,132.195z M154.246,133.894
				c0,0-5.262-5.721-6.032-6.053c-0.771-0.332-2.567,0.212-2.567,0.551s-0.385,1.97,0,3.328c0.385,1.358,0.514,2.92,1.925,3.668
				c1.412,0.747,2.631,1.086,3.978,0.883C152.898,136.066,154.311,134.98,154.246,133.894z M156.877,117.796
				c-0.124,1.013-0.771,3.872,0.513,4.211c1.285,0.34,6.867,3.601,6.996,2.581c0.128-1.019-0.321-1.766-1.027-2.581
				S157.038,116.493,156.877,117.796z M152.642,117.57c0,0-2.311-0.181-4.042,1.518c-1.733,1.698-3.124,3.735-3.124,3.735
				s9.604,2.853,12.107,5.434c2.502,2.581,3.85,4.007,2.631,5.229c-1.219,1.223-2.245,3.465-2.245,3.465s2.182-0.884,3.464-2.039
				c1.285-1.155,2.761-2.879,2.761-2.879s-2.695-4.32-3.979-5.271c-1.283-0.952-5.135-3.533-7.315-4.416
				c-2.183-0.882-2.76-1.631-2.118-2.377C151.423,119.223,152.642,117.57,152.642,117.57z"/>
		</g>
	</g>
</g>
<filter id="shieldGlowBlurred" >
	<feGaussianBlur stdDeviation="1" />
</filter>
</svg>
