<?xml-stylesheet type="text/css" href="../css/main-06.css"?>
<svg id="tickets-svg" xmlns="http://www.w3.org/2000/svg" viewBox="0 0 300 300" onclick="window.open('http://www.ticketmaster.com/event/0F004C7FF36C9F07');">
<style type="text/css">
<![CDATA[
	.st0{fill:#736F82;stroke:#000000;stroke-miterlimit:10;}
	.st1{fill:none;stroke:#333339;stroke-miterlimit:10;}
]]>
</style>
<g id="bottom-ticket">
	<path id="main-shape" class="st0" d="M294.9,192.6c0,0-27.6-7.6-26.9-38.1c0.7-30.4,29.5-34.3,29.5-34.3l0.4-32.1L14.4,81.5
		l-0.8,31.7c0,0,29.5,7.3,28.7,38.2c-0.8,30.9-30.5,34.3-30.5,34.3l-0.8,32.1l283.3,6.9L294.9,192.6z"/>
	<g id="inside-border_copy">
		<path class="st1" d="M281.5,212.9l1.1-15.1c0,0-31.9-15.5-26.3-48.1c5.5-32.5,27.8-35.6,27.8-35.6l0.8-15.1l-256-5.8l-1.1,14.4
			c0,0,32.3,16.2,27.3,45.9c-5,29.7-28.6,38.8-28.6,38.8l-0.7,14.5L281.5,212.9z"/>
		<line class="st1" x1="79.8" y1="94.3" x2="76.5" y2="208"/>
		<line class="st1" x1="232.9" y1="97.8" x2="229.4" y2="211.6"/>
	</g>
</g>
<g id="top-ticket">
	<path id="main-shape" class="st0" d="M295.1,165.6c0,0-28.5-2.9-32.9-33c-4.4-30.1,23.4-38.8,23.4-38.8l-4.9-31.7L0,102.9l4.5,31.4
		c0,0,30.3,2.2,34.7,32.9c4.4,30.6-24.3,38.9-24.3,38.9l4.6,31.8L300,197.4L295.1,165.6z"/>
	<g id="inside-border">
		<path class="st1" d="M285.3,187.8l-1.4-15.1c0,0-34-10-34-43S271.3,90,271.3,90l-1.8-15L16.2,112l1.3,14.3
			c0,0,34.6,10.6,34.6,40.7s-21.7,43.1-21.7,43.1l1.7,14.4L285.3,187.8z"/>
		<line class="st1" x1="66.6" y1="104.6" x2="82.3" y2="217.2"/>
		<line class="st1" x1="218.1" y1="82.5" x2="233.7" y2="195.3"/>
	</g>
</g>
</svg>
